<svg width="492" height="477" viewBox="0 0 492 477" fill="none" xmlns="http://www.w3.org/2000/svg">
<circle cx="245.428" cy="239.14" r="199.541" fill="black" fill-opacity="0.01" stroke="black" stroke-width="0.5"/>
<path d="M452.29 191.142C452.929 191.334 453.559 191.53 454.181 191.727L454.031 192.202C454.686 192.409 455.331 192.618 455.967 192.83L456.124 192.356C456.762 192.568 457.392 192.781 458.011 192.998L458.012 192.998L457.848 193.47C458.478 193.691 459.098 193.914 459.708 194.139L459.88 193.672C460.527 193.91 461.163 194.149 461.787 194.393L461.605 194.858C462.226 195.101 462.836 195.346 463.434 195.594L463.623 195.134C464.253 195.395 464.872 195.657 465.477 195.923L465.277 196.381C465.898 196.655 466.507 196.931 467.102 197.211L467.312 196.76C467.914 197.044 468.504 197.328 469.079 197.618L468.854 198.065C469.472 198.376 470.073 198.69 470.657 199.008L470.895 198.569C471.483 198.89 472.055 199.215 472.61 199.542L472.359 199.971C472.95 200.32 473.521 200.672 474.072 201.027L474.342 200.61C474.91 200.977 475.458 201.348 475.985 201.723L475.697 202.128C476.253 202.524 476.785 202.923 477.293 203.327L477.602 202.938C478.132 203.36 478.637 203.786 479.116 204.218L478.784 204.588C479.29 205.044 479.767 205.505 480.214 205.971L480.574 205.625C481.04 206.113 481.475 206.606 481.877 207.104L481.489 207.418C481.915 207.946 482.303 208.48 482.653 209.019L483.071 208.747C483.442 209.318 483.771 209.896 484.059 210.482L483.611 210.702C483.9 211.289 484.145 211.883 484.346 212.482L484.819 212.323C485.033 212.964 485.199 213.612 485.316 214.268L484.826 214.356C484.882 214.673 484.927 214.991 484.959 215.311C484.992 215.631 485.013 215.952 485.021 216.273L485.519 216.259C485.537 216.925 485.505 217.594 485.424 218.264L484.929 218.206C484.854 218.833 484.733 219.464 484.569 220.098L485.051 220.222C484.887 220.853 484.682 221.486 484.434 222.12L483.969 221.938C483.735 222.537 483.463 223.138 483.152 223.742L483.595 223.97C483.302 224.54 482.976 225.11 482.618 225.681L482.195 225.416C481.852 225.962 481.478 226.511 481.074 227.06L481.474 227.353C481.091 227.873 480.683 228.393 480.249 228.913L479.868 228.595C479.452 229.093 479.011 229.591 478.547 230.091L478.911 230.429C478.47 230.903 478.009 231.377 477.526 231.851L477.177 231.497C476.709 231.956 476.221 232.416 475.712 232.877L476.045 233.245C475.567 233.678 475.073 234.112 474.561 234.544L474.239 234.164C473.731 234.593 473.207 235.023 472.665 235.452L472.973 235.843C472.469 236.242 471.949 236.64 471.417 237.039L471.119 236.641C470.593 237.035 470.054 237.43 469.5 237.823L469.789 238.23C469.25 238.613 468.697 238.994 468.132 239.376L467.854 238.965C467.318 239.328 466.77 239.691 466.211 240.054L466.481 240.472C465.92 240.836 465.346 241.199 464.761 241.563L464.498 241.141C463.946 241.485 463.383 241.828 462.811 242.171L463.066 242.6C462.503 242.937 461.93 243.273 461.347 243.609L461.098 243.178C460.518 243.514 459.928 243.849 459.329 244.184L459.571 244.619C459.002 244.937 458.424 245.255 457.837 245.572L457.6 245.134C457.023 245.446 456.438 245.756 455.845 246.068L456.076 246.509C455.481 246.821 454.878 247.132 454.267 247.444L454.041 247C453.457 247.298 452.866 247.595 452.267 247.892L452.487 248.339C451.899 248.63 451.304 248.922 450.702 249.212L450.486 248.762C449.885 249.052 449.277 249.341 448.662 249.631L448.874 250.081C448.27 250.365 447.66 250.649 447.042 250.932L446.835 250.479C446.243 250.751 445.644 251.022 445.039 251.293L445.243 251.748C444.637 252.019 444.025 252.291 443.407 252.561L443.207 252.105C442.59 252.376 441.968 252.645 441.339 252.914L441.535 253.372C440.932 253.631 440.324 253.889 439.71 254.146L439.518 253.686C438.912 253.94 438.3 254.194 437.684 254.447L437.872 254.909C437.254 255.163 436.63 255.416 436.002 255.669L435.816 255.206C435.192 255.457 434.563 255.708 433.929 255.959L434.111 256.423C433.503 256.663 432.891 256.902 432.274 257.14L432.094 256.675C431.479 256.913 430.858 257.151 430.233 257.388L430.41 257.855C429.784 258.093 429.153 258.331 428.518 258.567L428.345 258.1C427.716 258.335 427.083 258.569 426.445 258.802L426.616 259.271C426.001 259.496 425.382 259.72 424.759 259.944L424.591 259.475C423.969 259.699 423.342 259.923 422.712 260.146L422.877 260.617C422.246 260.84 421.611 261.063 420.972 261.285L420.809 260.814C420.174 261.035 419.533 261.256 418.889 261.477L419.05 261.948C418.431 262.16 417.808 262.373 417.181 262.584L417.021 262.111C416.395 262.322 415.765 262.532 415.132 262.742L415.288 263.216C414.654 263.426 414.016 263.636 413.374 263.845L413.221 263.371C412.58 263.58 411.936 263.789 411.288 263.997L411.441 264.471C410.813 264.673 410.181 264.874 409.547 265.075L409.397 264.6C408.769 264.799 408.136 264.996 407.501 265.194L407.649 265.67C407.013 265.868 406.374 266.067 405.732 266.264L405.586 265.787C404.944 265.984 404.3 266.181 403.652 266.377L403.795 266.855C403.155 267.049 402.512 267.242 401.866 267.434L401.724 266.956C401.094 267.144 400.461 267.332 399.825 267.519L399.966 267.997C399.329 268.184 398.689 268.372 398.047 268.558L397.908 268.078C397.267 268.264 396.623 268.45 395.975 268.635L396.112 269.115C395.464 269.301 394.813 269.485 394.16 269.67L394.024 269.189C393.388 269.368 392.749 269.547 392.107 269.726L392.24 270.206C391.604 270.383 390.964 270.56 390.322 270.736L390.191 270.255C389.55 270.431 388.906 270.606 388.26 270.781L388.389 271.263C387.743 271.438 387.094 271.613 386.442 271.787L386.314 271.305C385.662 271.478 385.008 271.652 384.352 271.824L384.479 272.307C383.842 272.475 383.203 272.642 382.561 272.809L382.436 272.326C381.796 272.493 381.153 272.659 380.508 272.825L380.631 273.307C379.985 273.473 379.338 273.638 378.688 273.803L378.567 273.319C377.917 273.484 377.265 273.648 376.611 273.812L376.732 274.296C376.078 274.46 375.422 274.623 374.764 274.785L374.644 274.3C374.005 274.458 373.363 274.615 372.72 274.772L372.837 275.257C372.193 275.414 371.547 275.569 370.899 275.725L370.783 275.241C370.136 275.397 369.486 275.552 368.835 275.707L368.949 276.192C368.297 276.347 367.642 276.501 366.986 276.655L366.874 276.17C366.218 276.323 365.56 276.476 364.9 276.629L365.012 277.115C364.368 277.264 363.723 277.412 363.076 277.56L362.966 277.074C362.32 277.221 361.672 277.368 361.023 277.515L361.132 278.001C360.482 278.148 359.83 278.295 359.176 278.44L359.069 277.954C358.416 278.099 357.761 278.244 357.104 278.388L357.21 278.876C356.553 279.021 355.894 279.164 355.233 279.307L355.129 278.82C354.48 278.961 353.83 279.101 353.178 279.241L353.282 279.728C352.634 279.867 351.985 280.007 351.334 280.145L351.231 279.656C350.581 279.794 349.928 279.932 349.274 280.069L349.377 280.558C348.722 280.695 348.065 280.831 347.407 280.967L347.307 280.477C346.65 280.613 345.991 280.748 345.33 280.883L345.429 281.372C344.774 281.505 344.116 281.639 343.458 281.772L343.361 281.283C342.712 281.414 342.062 281.544 341.411 281.673L341.508 282.163C340.856 282.293 340.202 282.422 339.547 282.55L339.452 282.06C338.797 282.189 338.141 282.317 337.483 282.444L337.577 282.934C336.919 283.061 336.26 283.188 335.599 283.315L335.506 282.826C334.846 282.952 334.184 283.077 333.52 283.203L333.612 283.694C332.961 283.817 332.308 283.938 331.654 284.06L331.564 283.571C330.912 283.693 330.258 283.813 329.603 283.934L329.693 284.424C329.037 284.545 328.381 284.666 327.723 284.786L327.635 284.294C326.977 284.414 326.318 284.533 325.658 284.652L325.745 285.143C325.085 285.261 324.423 285.379 323.76 285.496L323.674 285.006C323.015 285.123 322.354 285.239 321.692 285.354L321.778 285.846C321.125 285.96 320.471 286.074 319.816 286.188L319.731 285.696C319.077 285.809 318.42 285.922 317.763 286.034L317.847 286.525C317.189 286.637 316.53 286.749 315.869 286.86L315.788 286.367C315.128 286.478 314.467 286.589 313.804 286.699L313.885 287.192C313.223 287.301 312.559 287.41 311.894 287.519L311.815 287.027C311.157 287.134 310.497 287.242 309.837 287.349L309.916 287.84C309.261 287.946 308.605 288.052 307.947 288.157L307.87 287.664C307.213 287.769 306.554 287.873 305.895 287.976L305.972 288.469C305.312 288.573 304.651 288.677 303.989 288.779L303.914 288.286C303.253 288.389 302.59 288.49 301.926 288.592L302 289.086C301.336 289.187 300.671 289.288 300.005 289.388L299.931 288.895C299.274 288.994 298.615 289.093 297.956 289.191L298.028 289.684C297.371 289.782 296.713 289.88 296.054 289.977L295.982 289.482C295.323 289.579 294.664 289.675 294.003 289.77L294.073 290.265C293.412 290.36 292.75 290.455 292.087 290.55L292.018 290.055C291.355 290.15 290.69 290.244 290.025 290.338L290.094 290.831C289.429 290.925 288.763 291.017 288.096 291.11L288.029 290.616C287.37 290.707 286.71 290.797 286.05 290.887L286.117 291.381C285.458 291.471 284.798 291.561 284.138 291.649L284.073 291.155C283.413 291.244 282.751 291.332 282.089 291.419L282.153 291.914C281.491 292.002 280.828 292.089 280.164 292.175L280.101 291.68C279.437 291.766 278.771 291.853 278.106 291.938L278.169 292.433C277.503 292.519 276.836 292.604 276.169 292.688L276.107 292.193C275.447 292.276 274.786 292.359 274.124 292.441L274.185 292.936C273.525 293.018 272.864 293.1 272.202 293.181L272.143 292.685C271.482 292.766 270.819 292.846 270.156 292.926L270.214 293.422C269.551 293.501 268.887 293.58 268.222 293.659L268.165 293.164C267.501 293.243 266.835 293.321 266.169 293.398L266.225 293.894C265.559 293.972 264.892 294.048 264.224 294.124L264.167 293.63C263.506 293.705 262.843 293.78 262.18 293.855L262.234 294.35C261.573 294.424 260.912 294.499 260.25 294.573L260.195 294.077C259.533 294.15 258.87 294.222 258.207 294.294L258.259 294.789C257.595 294.861 256.93 294.933 256.265 295.004L256.213 294.509C255.548 294.58 254.882 294.65 254.216 294.72L254.267 295.218C253.601 295.288 252.933 295.355 252.264 295.424L252.214 294.928L250.208 295.133L250.258 295.628C249.589 295.696 248.921 295.764 248.254 295.83L248.255 295.83L248.205 295.333C247.538 295.399 246.871 295.464 246.206 295.529L246.254 296.024C245.588 296.089 244.923 296.153 244.258 296.216L244.211 295.72C243.546 295.784 242.882 295.847 242.219 295.909L242.265 296.406C241.601 296.467 240.938 296.527 240.276 296.588L240.23 296.092C239.565 296.152 238.901 296.213 238.238 296.272L238.282 296.768C237.612 296.828 236.943 296.888 236.275 296.946L236.231 296.449C235.563 296.508 234.895 296.566 234.229 296.623L234.271 297.119C233.604 297.176 232.938 297.233 232.272 297.288L232.23 296.791C231.565 296.847 230.9 296.902 230.236 296.956L230.277 297.453C229.612 297.508 228.949 297.56 228.286 297.613L228.247 297.116C227.582 297.169 226.918 297.222 226.255 297.273L226.293 297.771L226.292 297.771C225.622 297.823 224.952 297.874 224.283 297.925L224.245 297.427C223.576 297.478 222.908 297.527 222.24 297.576L222.276 298.074C221.608 298.124 220.941 298.173 220.275 298.22L220.239 297.723C219.573 297.77 218.907 297.818 218.243 297.864L218.278 298.361C217.613 298.408 216.949 298.453 216.285 298.497L216.252 298C215.587 298.045 214.923 298.09 214.26 298.134L214.292 298.631C213.62 298.675 212.949 298.719 212.279 298.761L212.248 298.264C211.578 298.307 210.908 298.348 210.24 298.389L210.27 298.888C209.602 298.929 208.934 298.97 208.267 299.009L208.237 298.511C207.571 298.55 206.905 298.59 206.241 298.628L206.269 299.127C205.604 299.165 204.94 299.201 204.277 299.238L204.249 298.741C203.583 298.777 202.918 298.814 202.254 298.85L202.281 299.347C201.608 299.383 200.936 299.419 200.265 299.454L200.24 298.955C199.57 298.989 198.9 299.023 198.231 299.056L198.255 299.554C197.586 299.587 196.918 299.619 196.251 299.651L196.228 299.153C195.561 299.184 194.895 299.215 194.231 299.245L194.253 299.743C193.588 299.773 192.924 299.802 192.261 299.831L192.24 299.333C191.572 299.362 190.905 299.389 190.239 299.416L190.26 299.915C189.586 299.942 188.914 299.97 188.243 299.996L188.223 299.497C187.553 299.523 186.882 299.548 186.214 299.572L186.232 300.071C185.563 300.095 184.896 300.119 184.229 300.142L184.212 299.644C183.545 299.667 182.88 299.688 182.216 299.71L182.231 300.209C181.567 300.23 180.903 300.25 180.241 300.27L180.227 299.771C179.555 299.791 178.884 299.811 178.215 299.83L178.23 300.328C177.556 300.347 176.884 300.364 176.213 300.381L176.201 299.883C175.53 299.9 174.86 299.916 174.192 299.932L174.204 300.431C173.535 300.447 172.868 300.46 172.202 300.474L172.191 299.976C171.526 299.989 170.862 300.003 170.199 300.016L170.207 300.513C169.542 300.526 168.879 300.539 168.216 300.549L168.208 300.05C167.533 300.061 166.859 300.072 166.187 300.081L166.193 300.579C165.52 300.588 164.849 300.597 164.179 300.605L164.173 300.107C163.503 300.114 162.835 300.121 162.168 300.127L162.172 300.626C161.505 300.632 160.838 300.638 160.173 300.643L160.174 300.643L160.171 300.143C159.507 300.148 158.843 300.152 158.182 300.155L158.185 300.653C157.513 300.656 156.843 300.657 156.174 300.659L156.173 300.16C155.499 300.161 154.826 300.162 154.154 300.162L154.154 300.661C153.482 300.661 152.812 300.66 152.143 300.658L152.144 300.658L152.146 300.158C151.477 300.156 150.811 300.153 150.146 300.149L150.143 300.648C149.477 300.644 148.813 300.639 148.151 300.633L148.155 300.135C147.488 300.13 146.823 300.124 146.16 300.116L146.154 300.615C145.478 300.607 144.803 300.6 144.131 300.591L144.138 300.092C143.465 300.083 142.794 300.073 142.125 300.062L142.117 300.56C141.447 300.549 140.779 300.538 140.113 300.526L140.123 300.027C139.457 300.014 138.793 300.001 138.131 299.986L138.12 300.485C137.456 300.471 136.795 300.456 136.135 300.44L136.147 299.941C135.47 299.925 134.795 299.908 134.122 299.889L134.108 300.388C133.434 300.369 132.762 300.35 132.092 300.33L132.108 299.832C131.438 299.812 130.77 299.791 130.105 299.769L130.088 300.266C129.422 300.244 128.757 300.222 128.095 300.198L128.113 299.7C127.451 299.676 126.791 299.651 126.133 299.626L126.113 300.126C125.435 300.099 124.76 300.071 124.087 300.042L124.109 299.544C123.435 299.516 122.764 299.486 122.094 299.456L122.071 299.954C121.402 299.924 120.734 299.893 120.068 299.861L120.092 299.364C119.427 299.332 118.764 299.298 118.103 299.264L118.077 299.763C117.415 299.729 116.755 299.694 116.098 299.658L116.125 299.159C115.448 299.123 114.772 299.085 114.099 299.046L114.071 299.545C113.397 299.506 112.726 299.465 112.057 299.424L112.088 298.926C111.419 298.885 110.753 298.843 110.09 298.8L110.057 299.298C109.393 299.255 108.731 299.21 108.072 299.165L108.106 298.668C107.442 298.623 106.78 298.576 106.12 298.529L106.085 299.027C105.407 298.979 104.732 298.929 104.06 298.878L104.099 298.381C103.427 298.33 102.758 298.278 102.092 298.225L102.052 298.723C101.386 298.67 100.722 298.615 100.061 298.56L100.102 298.063C99.4418 298.009 98.7833 297.953 98.128 297.896L98.0844 298.393C97.4129 298.334 96.7442 298.274 96.0784 298.213L96.124 297.717C95.4499 297.656 94.7784 297.593 94.1102 297.53L94.0627 298.026C93.3941 297.963 92.7285 297.898 92.0659 297.832L92.1154 297.335C91.4533 297.269 90.7938 297.203 90.1377 297.135L90.0862 297.631C89.4244 297.563 88.7659 297.492 88.1104 297.421L88.1639 296.926C87.4878 296.853 86.815 296.778 86.1455 296.703L86.0891 297.199C85.4186 297.123 84.7514 297.047 84.0877 296.969L84.1461 296.473C83.4835 296.395 82.8243 296.316 82.1685 296.236L82.1071 296.732L82.1062 296.732C81.4497 296.651 80.7969 296.568 80.1473 296.486L80.2108 295.991C79.5359 295.905 78.8646 295.818 78.1973 295.729L78.1309 296.224C77.4602 296.135 76.7933 296.045 76.1303 295.954L76.1986 295.459C75.5363 295.368 74.8774 295.275 74.2228 295.181L74.1524 295.675C73.4968 295.581 72.8451 295.485 72.1973 295.389L72.2708 294.896C71.5992 294.796 70.9317 294.695 70.2686 294.592L70.1922 295.084C69.5224 294.981 68.8569 294.875 68.1958 294.769L68.2752 294.276C67.6152 294.169 66.9596 294.061 66.3084 293.952L66.225 294.444C65.5729 294.335 64.9252 294.224 64.282 294.112L64.3673 293.621C63.6955 293.503 63.0287 293.384 62.3668 293.264L62.2774 293.755C61.6108 293.634 60.9491 293.512 60.2925 293.388L60.3858 292.898C59.7304 292.774 59.0796 292.649 58.4344 292.522L58.338 293.012C57.6855 292.884 57.0381 292.754 56.396 292.623L56.4953 292.134C55.8253 291.997 55.161 291.859 54.5025 291.718L54.398 292.205C53.7381 292.065 53.0839 291.923 52.4355 291.779L52.544 291.293C51.8971 291.149 51.256 291.004 50.6208 290.857L50.5084 291.343C49.8468 291.19 49.1917 291.035 48.543 290.879L48.6605 290.395C48.0004 290.236 47.3468 290.075 46.7001 289.912L46.5767 290.397C45.9284 290.234 45.2871 290.068 44.6523 289.901L44.7798 289.419C44.1334 289.249 43.4934 289.077 42.8613 288.904L42.7295 289.383C42.068 289.202 41.414 289.019 40.7682 288.833L40.9068 288.354C40.263 288.169 39.627 287.982 38.9992 287.792L38.8546 288.27C38.2159 288.078 37.5855 287.883 36.9634 287.687L37.1143 287.212C36.4596 287.005 35.8143 286.795 35.1783 286.584L35.0203 287.056C34.3822 286.844 33.7532 286.631 33.134 286.414L33.2989 285.943C32.6686 285.722 32.0478 285.5 31.4374 285.275L31.2641 285.741C30.618 285.503 29.9826 285.263 29.3588 285.019L29.5412 284.555C28.9203 284.312 28.3103 284.067 27.7121 283.82L27.5214 284.279C26.8914 284.018 26.2731 283.756 25.6682 283.49L25.8699 283.033C25.248 282.759 24.6394 282.482 24.0449 282.203L23.8326 282.652C23.2303 282.369 22.641 282.084 22.0666 281.795L22.2912 281.35C21.6738 281.039 21.073 280.723 20.4889 280.405L20.2498 280.843C19.6612 280.523 19.0901 280.198 18.5349 279.87L18.7877 279.442C18.1967 279.094 17.6248 278.742 17.0732 278.386L16.8035 278.803C16.2347 278.436 15.6863 278.065 15.1588 277.69L15.4483 277.285C14.8925 276.89 14.3605 276.49 13.8527 276.086L13.5428 276.474C13.0125 276.052 12.5075 275.626 12.0283 275.194L12.3618 274.826C11.8551 274.369 11.3781 273.908 10.9319 273.442L10.5715 273.787C10.1053 273.3 9.67062 272.808 9.26843 272.309L9.65759 271.995C9.23147 271.467 8.84301 270.933 8.49316 270.394L8.07322 270.666C7.70291 270.095 7.37445 269.517 7.08666 268.932L7.5344 268.711C7.2456 268.124 7.0002 267.531 6.79942 266.932L6.32562 267.089C6.11116 266.449 5.94507 265.8 5.82802 265.144L6.31984 265.058C6.26338 264.741 6.21879 264.423 6.18617 264.103C6.15355 263.782 6.13292 263.461 6.12439 263.14L5.62515 263.154C5.60836 262.521 5.6356 261.885 5.70784 261.249L5.72018 261.148L6.21607 261.208C6.29182 260.58 6.41253 259.95 6.57698 259.317L6.0939 259.19C6.25781 258.559 6.46278 257.926 6.71036 257.293L7.17655 257.475C7.41044 256.876 7.68324 256.275 7.99404 255.672L7.54954 255.442C7.8429 254.873 8.16922 254.303 8.52764 253.732L8.95035 253.998C9.2934 253.451 9.66748 252.903 10.0717 252.354L9.67149 252.058C10.0535 251.539 10.4618 251.02 10.8958 250.5L11.2777 250.819C11.6936 250.321 12.134 249.822 12.5987 249.323L12.2342 248.983C12.6751 248.509 13.1378 248.036 13.6207 247.561L13.9681 247.917C14.4365 247.457 14.9257 246.997 15.4343 246.536L15.1002 246.167C15.5779 245.734 16.0717 245.301 16.5836 244.868L16.9062 245.25C17.4142 244.82 17.94 244.391 18.482 243.962L18.1711 243.57C18.6753 243.17 19.195 242.773 19.7278 242.374L20.0265 242.772C20.5524 242.378 21.0927 241.985 21.6466 241.591L21.3567 241.184C21.8956 240.801 22.448 240.419 23.0126 240.036L23.2922 240.449C23.8281 240.085 24.3761 239.722 24.9353 239.359L24.6629 238.94C25.2247 238.576 25.7987 238.213 26.3834 237.849L26.6474 238.272C27.1998 237.928 27.7629 237.585 28.3358 237.242L28.0791 236.813C28.6419 236.476 29.2149 236.14 29.7971 235.803L30.0473 236.235C30.6276 235.9 31.2182 235.565 31.8178 235.23L31.5741 234.795C32.1438 234.477 32.7208 234.157 33.3075 233.84L33.3086 233.84L33.5458 234.281C34.1225 233.969 34.7078 233.657 35.3009 233.346L35.0683 232.903C35.6634 232.591 36.2671 232.28 36.8784 231.969L37.1053 232.413C37.6892 232.116 38.2809 231.819 38.8796 231.522L38.6573 231.075C39.2455 230.783 39.8398 230.491 40.4421 230.2L40.4431 230.201L40.6608 230.651C41.2614 230.361 41.869 230.072 42.4835 229.783L42.2707 229.331C42.8745 229.047 43.4851 228.764 44.1021 228.481L44.3102 228.934C44.9027 228.662 45.5014 228.391 46.1061 228.12L45.9017 227.666C46.5079 227.394 47.1197 227.122 47.7378 226.851L47.9385 227.308C48.5551 227.038 49.1779 226.768 49.8065 226.499L49.6105 226.04C50.2131 225.782 50.8207 225.523 51.434 225.266L51.6273 225.727C52.2337 225.473 52.846 225.22 53.4629 224.966L53.2724 224.504C53.8906 224.25 54.514 223.997 55.1425 223.744L55.3292 224.208C55.9535 223.956 56.5832 223.705 57.2177 223.455L57.0339 222.99C57.6417 222.751 58.2539 222.511 58.871 222.272L59.051 222.739C59.6668 222.5 60.2871 222.262 60.9121 222.025L60.7349 221.558C61.361 221.32 61.9913 221.082 62.6265 220.845L62.8009 221.314C63.4295 221.08 64.063 220.846 64.7005 220.612L64.5289 220.143C65.144 219.917 65.7629 219.692 66.3861 219.467L66.5548 219.938C67.177 219.714 67.8037 219.491 68.434 219.268L68.2671 218.796C68.8981 218.572 69.5331 218.35 70.1721 218.127L70.337 218.6C70.9728 218.378 71.6125 218.157 72.2562 217.937L72.0942 217.464C72.7141 217.252 73.3371 217.039 73.9642 216.828L73.9652 216.829L74.1244 217.303C74.7507 217.092 75.381 216.881 76.0145 216.671L75.8571 216.196C76.4912 215.986 77.1289 215.777 77.77 215.568L77.9254 216.043C78.5659 215.834 79.2098 215.625 79.8573 215.417L79.7048 214.941C80.3325 214.74 80.9635 214.539 81.5977 214.338L81.7484 214.815C82.3773 214.616 83.0098 214.417 83.645 214.219L83.4963 213.742C84.132 213.544 84.7709 213.347 85.4129 213.149L85.5596 213.626C86.2012 213.429 86.8464 213.233 87.4942 213.036L87.3493 212.558C87.9892 212.365 88.6319 212.171 89.2779 211.978L89.421 212.457C90.0513 212.269 90.685 212.082 91.321 211.895L91.1799 211.415C91.8164 211.228 92.4556 211.041 93.0978 210.855L93.237 211.335C93.8787 211.149 94.5238 210.964 95.1711 210.779L95.0337 210.298C95.6816 210.113 96.3322 209.928 96.9856 209.744L97.121 210.225C97.7575 210.045 98.3966 209.866 99.0384 209.688L98.9049 209.207C99.5414 209.03 100.181 208.853 100.822 208.677L100.955 209.159C101.596 208.983 102.239 208.807 102.886 208.632L102.755 208.151C103.402 207.976 104.051 207.799 104.702 207.625L104.703 207.626L104.832 208.109C105.483 207.935 106.137 207.762 106.793 207.589L106.666 207.105C107.303 206.937 107.943 206.77 108.584 206.603L108.71 207.087C109.35 206.921 109.993 206.754 110.637 206.588L110.514 206.105C111.159 205.94 111.807 205.775 112.457 205.61L112.58 206.094C113.229 205.93 113.881 205.765 114.535 205.601L114.414 205.117C115.067 204.954 115.723 204.789 116.38 204.627L116.381 204.628L116.502 205.113C117.141 204.956 117.782 204.798 118.425 204.641L118.307 204.156C118.951 203.999 119.597 203.843 120.245 203.687L120.363 204.173C121.01 204.017 121.66 203.861 122.312 203.706L122.196 203.221C122.848 203.066 123.502 202.911 124.159 202.757L124.273 203.244C124.929 203.091 125.587 202.937 126.246 202.784L126.133 202.297C126.776 202.148 127.421 202 128.068 201.853L128.18 202.34C128.826 202.192 129.473 202.045 130.123 201.898L130.013 201.412C130.663 201.265 131.315 201.119 131.968 200.973L132.077 201.46C132.73 201.314 133.385 201.169 134.042 201.025L133.934 200.537L133.933 200.536C134.59 200.392 135.25 200.249 135.911 200.105L136.018 200.593C136.666 200.452 137.316 200.312 137.968 200.172L137.863 199.684C138.511 199.545 139.16 199.407 139.811 199.269L139.915 199.757C140.566 199.619 141.218 199.481 141.872 199.344L141.77 198.855C142.424 198.718 143.08 198.582 143.737 198.447L143.839 198.936C144.497 198.8 145.156 198.665 145.816 198.53L145.716 198.041C146.372 197.907 147.028 197.773 147.687 197.641L147.786 198.131C148.434 198.001 149.084 197.87 149.736 197.74L149.638 197.25C150.29 197.121 150.943 196.992 151.598 196.863L151.694 197.353C152.348 197.224 153.005 197.096 153.662 196.969L153.567 196.479C154.225 196.351 154.885 196.224 155.545 196.098L155.64 196.588C156.3 196.461 156.963 196.336 157.626 196.211L157.533 195.719L157.532 195.719C158.183 195.595 158.836 195.474 159.49 195.352L159.582 195.843C160.234 195.722 160.887 195.6 161.542 195.48L161.452 194.988C162.107 194.868 162.763 194.746 163.42 194.627L163.421 194.628L163.511 195.119C164.168 194.999 164.827 194.88 165.488 194.761L165.399 194.27C166.06 194.151 166.722 194.033 167.385 193.915L167.473 194.408C168.132 194.291 168.792 194.175 169.453 194.059L169.368 193.566C170.02 193.452 170.673 193.338 171.328 193.225L171.329 193.226L171.414 193.718C172.069 193.605 172.725 193.493 173.382 193.381L173.299 192.888C173.956 192.776 174.615 192.665 175.275 192.554L175.359 193.046C176.018 192.935 176.679 192.824 177.341 192.714L177.259 192.221C177.922 192.111 178.586 192.002 179.251 191.893L179.332 192.387C179.99 192.279 180.648 192.172 181.308 192.065L181.229 191.572C181.884 191.466 182.54 191.36 183.197 191.256L183.276 191.749C183.933 191.644 184.591 191.541 185.25 191.437L185.173 190.943C185.832 190.84 186.493 190.736 187.155 190.633L187.232 191.127C187.894 191.024 188.557 190.923 189.22 190.821L189.144 190.327C189.808 190.225 190.473 190.125 191.139 190.024L191.214 190.518C191.872 190.419 192.531 190.32 193.191 190.222L193.117 189.728C193.774 189.631 194.432 189.532 195.091 189.436L195.163 189.931C195.822 189.834 196.483 189.738 197.143 189.643L197.071 189.148C197.732 189.052 198.395 188.957 199.058 188.863L199.129 189.358C199.792 189.264 200.455 189.17 201.12 189.077L201.051 188.581C201.716 188.488 202.383 188.395 203.05 188.303L203.118 188.797C203.776 188.706 204.435 188.616 205.096 188.526L205.029 188.031C205.687 187.942 206.346 187.852 207.007 187.763L207.074 188.259C207.734 188.17 208.395 188.081 209.057 187.994L208.991 187.499C209.653 187.411 210.317 187.325 210.981 187.238L211.046 187.733C211.71 187.647 212.374 187.561 213.04 187.475L212.977 186.98C213.642 186.895 214.309 186.809 214.977 186.725L215.04 187.221C215.7 187.138 216.361 187.054 217.022 186.972L216.96 186.478C217.62 186.396 218.281 186.314 218.942 186.233L219.004 186.728C219.665 186.647 220.327 186.567 220.989 186.487L220.93 185.992C221.593 185.912 222.257 185.833 222.922 185.754L222.981 186.25C223.646 186.171 224.312 186.093 224.978 186.015L224.919 185.519C225.586 185.442 226.253 185.364 226.922 185.288L226.978 185.785C227.64 185.709 228.303 185.633 228.967 185.559L228.91 185.063C229.571 184.988 230.233 184.913 230.895 184.84L230.896 184.841L230.951 185.338C231.613 185.264 232.276 185.191 232.94 185.119L232.885 184.623C233.549 184.551 234.214 184.479 234.879 184.408L234.933 184.904C235.598 184.833 236.264 184.763 236.931 184.693L236.878 184.196C237.545 184.126 238.213 184.057 238.881 183.989L238.933 184.485L240.938 184.281L240.887 183.784C241.555 183.717 242.223 183.649 242.89 183.583L242.941 184.08C243.608 184.014 244.274 183.949 244.94 183.885L244.89 183.388C245.556 183.323 246.222 183.26 246.887 183.196L246.935 183.693C247.6 183.63 248.264 183.568 248.928 183.506L248.881 183.008L248.881 183.007C249.544 182.945 250.207 182.885 250.869 182.825L250.915 183.322C251.58 183.261 252.245 183.201 252.908 183.142L252.863 182.644C253.532 182.584 254.201 182.526 254.87 182.467L254.914 182.964C255.583 182.906 256.25 182.849 256.917 182.792L256.873 182.294C257.541 182.237 258.207 182.181 258.873 182.125L258.915 182.622C259.58 182.567 260.246 182.512 260.91 182.457L260.868 181.96C261.532 181.906 262.196 181.853 262.859 181.8L262.9 182.297C263.564 182.244 264.228 182.192 264.891 182.141L264.851 181.642C265.522 181.59 266.193 181.539 266.863 181.488L266.9 181.986C267.57 181.936 268.239 181.886 268.906 181.837L268.868 181.339C269.536 181.29 270.203 181.241 270.87 181.193L270.907 181.691C271.573 181.643 272.238 181.597 272.903 181.55L272.867 181.051C273.532 181.005 274.196 180.96 274.859 180.915L274.894 181.413C275.559 181.368 276.223 181.323 276.886 181.28L276.852 180.782C277.524 180.737 278.195 180.694 278.866 180.651L278.899 181.15C279.569 181.108 280.238 181.065 280.906 181.024L280.874 180.525C281.543 180.484 282.211 180.443 282.878 180.403L282.908 180.903C283.575 180.863 284.24 180.824 284.905 180.786L284.875 180.286C285.541 180.248 286.205 180.211 286.868 180.174L286.897 180.673C287.563 180.636 288.228 180.599 288.892 180.564L288.864 180.065C289.537 180.029 290.209 179.993 290.88 179.959L290.906 180.459C291.577 180.424 292.247 180.39 292.915 180.357L292.89 179.858C293.559 179.825 294.227 179.793 294.893 179.762L294.918 180.261C295.584 180.229 296.25 180.198 296.915 180.168L296.891 179.669C297.557 179.639 298.221 179.61 298.884 179.582L298.906 180.081C299.574 180.052 300.241 180.024 300.907 179.997L300.886 179.498C301.559 179.47 302.231 179.443 302.903 179.417L302.922 179.916C303.593 179.89 304.263 179.865 304.932 179.841L304.912 179.342C305.581 179.318 306.249 179.295 306.916 179.272L306.934 179.77C307.6 179.748 308.266 179.725 308.931 179.703L308.914 179.205L308.914 179.204C309.578 179.182 310.241 179.162 310.903 179.142L310.919 179.642C311.59 179.622 312.261 179.603 312.93 179.584L312.916 179.085C313.589 179.067 314.261 179.048 314.932 179.031L314.946 179.53C315.616 179.513 316.285 179.497 316.953 179.482L316.942 178.982L316.942 178.981C317.61 178.966 318.277 178.952 318.943 178.938L318.954 179.438C319.62 179.424 320.285 179.411 320.948 179.399L320.937 178.899C321.603 178.887 322.267 178.874 322.93 178.863L322.93 178.864L322.938 179.364C323.613 179.353 324.287 179.343 324.959 179.333L324.951 178.834C325.624 178.824 326.296 178.816 326.966 178.808L326.973 179.307C327.642 179.299 328.311 179.292 328.978 179.286L328.972 178.787C329.64 178.781 330.306 178.775 330.971 178.771L330.975 179.27C331.639 179.265 332.302 179.263 332.963 179.26L332.961 178.759C333.632 178.756 334.303 178.755 334.971 178.754L334.973 179.253C335.647 179.252 336.32 179.251 336.991 179.252L336.99 178.752C337.662 178.753 338.332 178.753 339.001 178.755L339 179.255C339.668 179.257 340.335 179.26 341 179.264L341.003 178.765C341.668 178.769 342.332 178.774 342.995 178.779L342.991 179.278C343.657 179.284 344.323 179.29 344.986 179.297L344.99 178.798C345.667 178.805 346.342 178.812 347.015 178.821L347.015 178.822L347.009 179.321C347.681 179.33 348.352 179.34 349.021 179.351L349.028 178.852C349.698 178.863 350.366 178.875 351.032 178.888L351.023 179.386C351.689 179.399 352.352 179.413 353.014 179.427L353.024 178.927C353.688 178.942 354.35 178.956 355.01 178.972L354.999 179.472C355.676 179.489 356.351 179.506 357.024 179.525L357.037 179.025C357.711 179.043 358.383 179.062 359.053 179.082L359.039 179.582C359.708 179.602 360.376 179.624 361.042 179.645L361.057 179.146C361.723 179.168 362.387 179.19 363.049 179.214L363.033 179.713C363.694 179.737 364.354 179.762 365.012 179.788L365.032 179.288L365.032 179.287C365.709 179.313 366.384 179.342 367.058 179.37L367.038 179.869C367.711 179.897 368.383 179.927 369.052 179.957L369.074 179.458C369.744 179.488 370.412 179.519 371.077 179.551L371.053 180.05C371.718 180.082 372.382 180.115 373.042 180.149L373.067 179.65C373.729 179.684 374.389 179.719 375.047 179.754L375.02 180.254C375.698 180.291 376.373 180.328 377.046 180.367L377.076 179.869L377.076 179.868C377.749 179.907 378.42 179.948 379.089 179.989L379.059 180.487C379.727 180.528 380.393 180.57 381.057 180.613L381.087 180.116C381.751 180.159 382.413 180.202 383.073 180.247L383.039 180.745C383.704 180.79 384.367 180.837 385.026 180.884L385.061 180.386C385.738 180.435 386.413 180.484 387.085 180.535L387.048 181.034C387.719 181.084 388.388 181.136 389.054 181.188L389.092 180.69C389.759 180.743 390.423 180.797 391.085 180.852L391.044 181.35C391.705 181.405 392.362 181.461 393.017 181.518L393.06 181.02C393.732 181.078 394.401 181.138 395.067 181.199L395.022 181.696C395.696 181.758 396.367 181.82 397.035 181.884L397.082 181.387C397.751 181.451 398.417 181.515 399.08 181.581L399.031 182.078C399.693 182.144 400.352 182.211 401.008 182.279L401.059 181.782C401.721 181.851 402.38 181.92 403.035 181.991L402.982 182.488C403.658 182.561 404.331 182.635 405.001 182.71L405.056 182.214C405.726 182.289 406.393 182.366 407.057 182.444L406.999 182.941C407.662 183.018 408.322 183.097 408.978 183.178L409.038 182.682L409.038 182.681C409.695 182.761 410.348 182.844 410.997 182.927L410.936 183.422C411.611 183.508 412.282 183.595 412.949 183.684L413.014 183.188C413.685 183.277 414.352 183.367 415.015 183.459L414.948 183.954C415.61 184.046 416.268 184.138 416.923 184.232L416.993 183.738C417.649 183.832 418.3 183.927 418.948 184.024L418.875 184.518C419.546 184.618 420.214 184.72 420.877 184.823L420.953 184.329C421.623 184.433 422.289 184.538 422.95 184.645L422.87 185.138C423.53 185.244 424.187 185.352 424.838 185.461L424.919 184.969C425.572 185.079 426.22 185.189 426.864 185.301L426.778 185.794C427.45 185.911 428.118 186.029 428.78 186.149L428.868 185.657C429.534 185.778 430.196 185.901 430.852 186.024L430.761 186.516C431.416 186.639 432.066 186.765 432.711 186.891L432.806 186.4C433.459 186.529 434.107 186.659 434.75 186.79L434.65 187.28C435.32 187.416 435.985 187.556 436.643 187.696L436.746 187.207C437.406 187.348 438.061 187.491 438.709 187.635L438.601 188.121C439.248 188.264 439.89 188.409 440.525 188.556L440.636 188.07C441.298 188.223 441.953 188.377 442.601 188.534L442.486 189.019C443.146 189.178 443.8 189.338 444.446 189.501L444.568 189.016C445.216 189.18 445.857 189.346 446.492 189.512L446.367 189.995C447.013 190.165 447.652 190.336 448.284 190.51L448.416 190.029C449.077 190.211 449.731 190.394 450.376 190.579L450.24 191.059C450.883 191.244 451.519 191.432 452.146 191.621L452.29 191.142Z" stroke="black" stroke-dasharray="2 2"/>
<path d="M180.443 230.535C186.174 187.257 198.726 149.099 214.347 122.393C222.159 109.039 230.714 98.5919 239.525 91.7922C248.332 84.996 257.331 81.8878 266.098 83.0486C274.865 84.2096 282.746 89.5529 289.48 98.4073C296.218 107.266 301.758 119.579 305.825 134.507C313.958 164.358 316.145 204.468 310.414 247.746C304.683 291.024 292.132 329.183 276.51 355.888C268.698 369.242 260.144 379.689 251.333 386.488C242.526 393.285 233.526 396.394 224.758 395.233C215.991 394.072 208.112 388.728 201.377 379.873C194.639 371.014 189.099 358.702 185.032 343.774C176.9 313.924 174.712 273.813 180.443 230.535Z" stroke="black" stroke-width="2"/>
<path d="M290.207 164.414C325.212 185.39 351.809 212.787 366.537 240.078C381.276 267.39 384.048 294.417 371.794 314.865C359.541 335.313 334.401 345.612 303.366 345.495C272.355 345.377 235.653 334.843 200.648 313.867C165.644 292.89 139.048 265.493 124.321 238.202C109.581 210.89 106.809 183.864 119.062 163.416C131.316 142.968 156.456 132.668 187.491 132.785C218.502 132.903 255.203 143.438 290.207 164.414Z" stroke="black" stroke-width="2"/>
<path d="M234.938 220.533C276.964 196.839 316.224 177.575 345.719 165.583C360.473 159.585 372.747 155.421 381.687 153.425C386.164 152.425 389.745 151.983 392.358 152.101C395.044 152.223 396.355 152.916 396.839 153.774C397.323 154.633 397.238 156.114 395.951 158.475C394.7 160.772 392.468 163.607 389.296 166.921C382.961 173.536 373.045 181.883 360.276 191.402C334.749 210.432 297.946 234.053 255.92 257.748C213.893 281.442 174.633 300.706 145.139 312.697C130.385 318.696 118.111 322.859 109.172 324.856C104.695 325.855 101.114 326.297 98.5006 326.179C95.8142 326.057 94.503 325.364 94.0188 324.505C93.5349 323.646 93.6208 322.166 94.9069 319.805C96.1582 317.508 98.3899 314.673 101.563 311.36C107.897 304.744 117.813 296.397 130.582 286.879C156.108 267.849 192.912 244.228 234.938 220.533Z" stroke="black" stroke-width="2"/>
<path d="M316.263 193.128C316.358 193.786 316.451 194.444 316.544 195.104L316.051 195.174C316.144 195.829 316.235 196.486 316.326 197.143L316.819 197.075C316.909 197.726 317 198.379 317.088 199.032L317.089 199.032L316.593 199.099C316.681 199.752 316.769 200.405 316.856 201.06L317.349 200.995C317.436 201.65 317.522 202.306 317.607 202.963L317.114 203.028C317.199 203.684 317.282 204.342 317.366 205L317.861 204.938L317.861 204.937C317.945 205.596 318.026 206.257 318.107 206.918L317.613 206.979C317.694 207.635 317.775 208.292 317.854 208.949L318.349 208.89C318.428 209.543 318.507 210.196 318.584 210.851L318.584 210.852L318.089 210.911C318.166 211.565 318.242 212.221 318.318 212.878L318.812 212.821C318.887 213.478 318.963 214.136 319.037 214.794L318.541 214.85C318.615 215.508 318.689 216.167 318.761 216.827L319.257 216.772C319.329 217.432 319.399 218.094 319.47 218.756L318.975 218.809C319.045 219.465 319.114 220.123 319.183 220.781L319.678 220.731C319.746 221.386 319.815 222.041 319.881 222.698L319.384 222.748C319.451 223.404 319.516 224.061 319.581 224.719L320.076 224.67C320.141 225.328 320.205 225.986 320.268 226.646L319.772 226.694C319.835 227.353 319.897 228.013 319.958 228.673L320.456 228.627L320.456 228.626C320.518 229.288 320.577 229.95 320.636 230.613L320.14 230.658L320.316 232.646L320.812 232.602C320.87 233.265 320.929 233.927 320.985 234.589L320.486 234.631C320.542 235.293 320.597 235.953 320.651 236.613L321.147 236.572C321.201 237.232 321.254 237.892 321.306 238.551L320.81 238.591C320.862 239.25 320.913 239.908 320.963 240.566L321.461 240.527C321.511 241.186 321.559 241.843 321.607 242.5L321.11 242.537C321.159 243.197 321.206 243.857 321.252 244.516L321.749 244.48C321.796 245.144 321.843 245.807 321.888 246.47L321.39 246.504C321.435 247.166 321.479 247.828 321.522 248.489L322.019 248.456C322.062 249.117 322.104 249.778 322.145 250.437L321.648 250.47C321.689 251.129 321.73 251.788 321.769 252.446L322.267 252.417C322.306 253.075 322.343 253.732 322.38 254.389L321.883 254.418C321.92 255.08 321.956 255.74 321.992 256.4L322.489 256.373C322.525 257.038 322.561 257.702 322.595 258.366L322.096 258.392C322.13 259.055 322.163 259.717 322.195 260.378L322.692 260.354C322.724 261.015 322.754 261.676 322.784 262.337L322.287 262.36C322.317 263.02 322.345 263.679 322.373 264.337L322.872 264.315C322.9 264.974 322.926 265.631 322.952 266.288L322.454 266.309C322.48 266.972 322.506 267.635 322.53 268.296L323.027 268.278C323.052 268.943 323.076 269.608 323.098 270.271L322.6 270.289C322.622 270.953 322.644 271.615 322.664 272.277L323.162 272.261C323.182 272.923 323.201 273.584 323.22 274.244L322.722 274.259C322.74 274.919 322.758 275.577 322.775 276.235L323.272 276.222C323.289 276.88 323.304 277.538 323.319 278.195L322.82 278.207C322.834 278.873 322.849 279.537 322.861 280.201L323.359 280.191C323.372 280.857 323.383 281.522 323.394 282.185L322.896 282.194C322.906 282.857 322.916 283.52 322.925 284.181L323.423 284.174C323.432 284.836 323.439 285.497 323.446 286.156L322.947 286.162C322.954 286.822 322.96 287.48 322.964 288.137L323.462 288.133C323.467 288.793 323.47 289.453 323.473 290.111L322.975 290.114C322.977 290.781 322.979 291.447 322.979 292.111L323.478 292.11C323.479 292.775 323.478 293.44 323.476 294.103L322.978 294.103C322.977 294.765 322.973 295.427 322.97 296.088L323.469 296.09C323.465 296.751 323.462 297.411 323.456 298.07L322.956 298.066C322.95 298.724 322.944 299.382 322.936 300.038L323.434 300.043C323.426 300.707 323.417 301.37 323.407 302.032L322.91 302.025C322.9 302.692 322.889 303.357 322.877 304.021L323.375 304.029C323.363 304.694 323.35 305.358 323.336 306.02L322.838 306.01C322.824 306.671 322.808 307.332 322.792 307.991L323.29 308.002C323.274 308.662 323.256 309.32 323.238 309.978L322.74 309.964C322.722 310.622 322.702 311.281 322.682 311.937L323.18 311.951C323.159 312.62 323.137 313.287 323.114 313.952L322.616 313.936C322.593 314.601 322.569 315.264 322.544 315.926L323.042 315.945C323.017 316.608 322.99 317.269 322.963 317.929L322.465 317.91C322.438 318.569 322.41 319.227 322.38 319.884L322.879 319.905C322.85 320.563 322.818 321.219 322.787 321.873L322.289 321.85C322.257 322.516 322.223 323.18 322.189 323.843L322.687 323.867C322.653 324.534 322.616 325.199 322.58 325.862L322.082 325.836C322.045 326.498 322.008 327.16 321.97 327.819L322.467 327.848C322.428 328.508 322.388 329.167 322.347 329.824L321.849 329.794C321.808 330.45 321.766 331.105 321.723 331.759L322.22 331.791C322.176 332.454 322.131 333.115 322.085 333.775L321.587 333.741C321.541 334.407 321.493 335.072 321.444 335.734L321.942 335.77C321.893 336.434 321.844 337.096 321.793 337.756L321.295 337.717C321.244 338.377 321.192 339.035 321.138 339.691L321.635 339.73C321.581 340.387 321.526 341.042 321.471 341.695L320.975 341.653C320.919 342.313 320.861 342.971 320.803 343.628L321.298 343.671C321.238 344.338 321.178 345.002 321.117 345.665L320.62 345.619C320.559 346.281 320.496 346.942 320.432 347.601L320.928 347.648C320.864 348.307 320.798 348.964 320.732 349.62L320.236 349.57C320.17 350.224 320.102 350.877 320.033 351.528L320.528 351.58C320.458 352.24 320.387 352.897 320.315 353.552L319.82 353.499C319.747 354.164 319.673 354.827 319.598 355.487L320.093 355.543C320.017 356.205 319.941 356.864 319.863 357.522L319.368 357.463C319.29 358.12 319.21 358.774 319.13 359.427L319.625 359.487C319.545 360.14 319.463 360.791 319.38 361.44L318.886 361.377C318.802 362.036 318.716 362.694 318.629 363.348L319.122 363.414C319.035 364.077 318.946 364.739 318.856 365.398L318.362 365.331C318.272 365.989 318.181 366.645 318.088 367.298L318.582 367.368C318.489 368.023 318.395 368.675 318.299 369.325L317.805 369.253C317.71 369.902 317.614 370.548 317.517 371.192L318.009 371.266C317.909 371.929 317.806 372.59 317.703 373.248L317.211 373.171C317.107 373.831 317.002 374.488 316.896 375.142L317.387 375.222C317.281 375.878 317.173 376.53 317.064 377.18L316.574 377.098C316.465 377.747 316.355 378.394 316.243 379.038L316.734 379.122C316.621 379.774 316.507 380.423 316.392 381.069L315.902 380.982C315.784 381.643 315.665 382.3 315.544 382.955L316.034 383.045C315.914 383.701 315.791 384.353 315.668 385.003L315.178 384.91C315.055 385.559 314.93 386.205 314.804 386.848L315.294 386.944C315.167 387.588 315.039 388.228 314.91 388.866L314.421 388.768C314.288 389.426 314.153 390.081 314.018 390.732L314.506 390.833C314.369 391.488 314.231 392.14 314.091 392.789L313.603 392.685C313.464 393.332 313.324 393.977 313.181 394.617L313.667 394.724C313.525 395.366 313.38 396.005 313.235 396.64L312.75 396.53C312.601 397.18 312.451 397.826 312.299 398.469L312.784 398.583C312.63 399.236 312.473 399.885 312.316 400.531L311.833 400.414C311.676 401.059 311.517 401.7 311.357 402.337L311.84 402.458C311.679 403.096 311.518 403.731 311.355 404.362L310.873 404.237C310.706 404.881 310.538 405.522 310.369 406.158L310.85 406.286C310.676 406.935 310.501 407.58 310.324 408.221L309.845 408.089C309.668 408.729 309.49 409.365 309.311 409.996L309.789 410.132C309.609 410.766 309.428 411.394 309.245 412.019L308.768 411.879C308.58 412.519 308.391 413.154 308.2 413.785L308.676 413.929C308.481 414.572 308.285 415.211 308.087 415.845L307.612 415.697C307.414 416.329 307.215 416.957 307.014 417.58L307.487 417.733C307.286 418.357 307.083 418.977 306.878 419.592L306.405 419.434C306.192 420.072 305.978 420.705 305.761 421.332L306.233 421.496C306.015 422.13 305.795 422.758 305.572 423.382L305.101 423.214C304.88 423.835 304.656 424.451 304.431 425.061L304.898 425.233C304.669 425.854 304.438 426.468 304.205 427.077L303.741 426.9C303.5 427.53 303.257 428.153 303.012 428.771L303.475 428.954C303.229 429.574 302.981 430.187 302.732 430.795L302.272 430.606C302.023 431.212 301.773 431.811 301.521 432.404L301.979 432.599C301.714 433.221 301.448 433.835 301.179 434.443L300.723 434.243C300.452 434.854 300.18 435.457 299.905 436.054L300.357 436.263C300.081 436.862 299.803 437.454 299.523 438.039L299.074 437.824C298.786 438.426 298.496 439.021 298.203 439.608L298.648 439.829C298.347 440.432 298.045 441.028 297.74 441.615L297.297 441.384C296.993 441.968 296.686 442.544 296.377 443.111L296.814 443.349C296.494 443.936 296.172 444.515 295.847 445.085L295.415 444.839C295.082 445.423 294.748 445.997 294.41 446.562L294.838 446.817C294.499 447.384 294.156 447.941 293.812 448.489L293.391 448.225C293.036 448.792 292.677 449.348 292.316 449.893L292.732 450.168C292.36 450.73 291.984 451.279 291.607 451.819L291.2 451.533C290.825 452.069 290.448 452.594 290.068 453.107L290.468 453.403C290.063 453.95 289.654 454.483 289.243 455.005L288.853 454.698C288.443 455.219 288.03 455.727 287.613 456.222L287.995 456.542C287.566 457.052 287.131 457.546 286.696 458.028L286.327 457.697C285.878 458.195 285.426 458.678 284.971 459.146L285.327 459.492C284.866 459.965 284.404 460.423 283.937 460.865L283.594 460.504C283.105 460.967 282.613 461.413 282.117 461.841L282.442 462.216C281.938 462.651 281.433 463.071 280.922 463.471L280.615 463.078C280.092 463.488 279.565 463.879 279.035 464.25L279.321 464.658C278.773 465.042 278.222 465.407 277.667 465.751L277.404 465.326C276.844 465.673 276.281 465.999 275.714 466.303L275.95 466.743C275.36 467.059 274.767 467.352 274.169 467.624L273.963 467.169C273.367 467.44 272.768 467.688 272.165 467.912L272.338 468.38C271.714 468.612 271.085 468.82 270.452 469.003L270.313 468.524C269.689 468.705 269.061 468.861 268.428 468.993L268.53 469.482C267.881 469.617 267.229 469.727 266.571 469.812L266.509 469.316C266.187 469.357 265.864 469.393 265.54 469.422C265.216 469.45 264.891 469.472 264.566 469.488L264.591 469.987C263.929 470.02 263.267 470.026 262.605 470.007L262.62 469.508C261.974 469.489 261.328 469.446 260.682 469.377L260.629 469.873C259.974 469.804 259.318 469.71 258.663 469.592L258.752 469.1C258.118 468.986 257.485 468.847 256.851 468.686L256.727 469.169C256.091 469.007 255.455 468.823 254.819 468.616L254.975 468.141C254.363 467.941 253.751 467.719 253.139 467.476L252.954 467.941C252.347 467.7 251.74 467.437 251.134 467.156L251.345 466.704C250.758 466.431 250.17 466.139 249.583 465.828L249.349 466.269C248.776 465.965 248.205 465.64 247.633 465.3L247.887 464.874C247.324 464.539 246.761 464.186 246.198 463.817L245.923 464.233C245.386 463.88 244.85 463.51 244.314 463.126L244.604 462.722C244.073 462.341 243.543 461.945 243.014 461.534L242.708 461.926C242.195 461.527 241.68 461.117 241.168 460.691L241.488 460.308C240.992 459.894 240.496 459.467 240 459.027L239.669 459.397C239.173 458.956 238.677 458.503 238.182 458.036L238.525 457.674C238.06 457.236 237.596 456.785 237.133 456.324L236.782 456.677C236.316 456.212 235.849 455.737 235.384 455.249L235.747 454.906C235.296 454.432 234.844 453.948 234.395 453.453L234.026 453.786C233.591 453.307 233.155 452.819 232.722 452.321L233.099 451.993C232.667 451.497 232.237 450.991 231.807 450.475L231.424 450.793C231.004 450.289 230.585 449.776 230.167 449.254L230.556 448.943C230.152 448.439 229.749 447.926 229.347 447.405L228.951 447.709C228.548 447.185 228.145 446.653 227.743 446.113L228.144 445.816C227.752 445.289 227.361 444.755 226.971 444.213L226.566 444.502C226.188 443.976 225.81 443.442 225.433 442.901L225.842 442.616C225.467 442.077 225.092 441.53 224.719 440.976L224.304 441.255C223.932 440.704 223.562 440.145 223.192 439.58L223.61 439.307C223.257 438.768 222.905 438.222 222.554 437.67L222.134 437.936C221.781 437.382 221.429 436.822 221.079 436.255L221.503 435.993C221.153 435.428 220.804 434.857 220.457 434.279L220.029 434.535C219.693 433.977 219.358 433.413 219.023 432.842L219.454 432.59C219.125 432.029 218.797 431.462 218.469 430.889L218.035 431.137C217.707 430.562 217.379 429.982 217.052 429.396L217.489 429.154C217.166 428.574 216.843 427.989 216.522 427.398L216.083 427.636C215.773 427.067 215.464 426.493 215.156 425.913L215.597 425.679C215.289 425.101 214.982 424.519 214.676 423.931L214.234 424.161C213.927 423.572 213.622 422.977 213.317 422.378L213.762 422.153C213.463 421.565 213.164 420.973 212.867 420.376L212.421 420.598C212.131 420.015 211.842 419.428 211.553 418.837L212.001 418.618C211.714 418.028 211.427 417.434 211.141 416.835L210.691 417.049C210.404 416.449 210.119 415.845 209.834 415.236L210.285 415.025C210.006 414.429 209.728 413.828 209.451 413.224L208.998 413.431C208.726 412.838 208.455 412.242 208.185 411.642L208.64 411.438C208.37 410.839 208.102 410.236 207.834 409.629L207.378 409.829C207.109 409.221 206.841 408.609 206.575 407.993L207.033 407.796C206.77 407.19 206.509 406.58 206.248 405.966L205.789 406.16C205.534 405.56 205.28 404.957 205.026 404.35L205.488 404.159C205.235 403.554 204.983 402.944 204.732 402.331L204.27 402.519C204.019 401.905 203.768 401.288 203.518 400.667L203.982 400.482C203.733 399.865 203.485 399.244 203.238 398.619L202.774 398.802C202.535 398.197 202.295 397.589 202.058 396.978L202.525 396.796C202.288 396.186 202.051 395.571 201.816 394.954L201.348 395.132C201.112 394.514 200.878 393.893 200.644 393.269L201.111 393.094C200.877 392.471 200.644 391.844 200.412 391.215L199.944 391.387C199.716 390.771 199.49 390.152 199.264 389.53L199.734 389.361C199.511 388.747 199.289 388.13 199.068 387.51L198.598 387.677C198.377 387.056 198.155 386.432 197.935 385.806L198.406 385.641C198.187 385.015 197.968 384.387 197.75 383.756L197.278 383.918C197.061 383.288 196.843 382.656 196.627 382.021L197.102 381.861C196.892 381.244 196.683 380.625 196.475 380.003L196.001 380.161C195.793 379.538 195.586 378.912 195.38 378.284L195.854 378.129C195.648 377.502 195.442 376.872 195.238 376.24L194.763 376.393C194.558 375.76 194.354 375.124 194.151 374.486L194.626 374.337C194.426 373.707 194.226 373.075 194.028 372.441L193.552 372.589C193.356 371.964 193.16 371.338 192.966 370.709L193.444 370.563C193.25 369.935 193.056 369.305 192.864 368.672L192.386 368.816C192.194 368.183 192.003 367.547 191.812 366.909L192.291 366.767C192.1 366.13 191.91 365.49 191.722 364.849L191.243 364.988C191.057 364.356 190.871 363.721 190.687 363.085L191.166 362.946C190.984 362.318 190.802 361.687 190.622 361.054L190.142 361.191C189.961 360.557 189.78 359.922 189.601 359.285L189.602 359.285L190.083 359.15C189.905 358.513 189.726 357.874 189.549 357.234L189.067 357.365C188.89 356.724 188.714 356.08 188.538 355.434L189.02 355.304C188.847 354.668 188.675 354.03 188.504 353.391L188.021 353.519C187.851 352.886 187.682 352.251 187.514 351.614L187.998 351.488C187.83 350.851 187.662 350.212 187.496 349.572L187.011 349.699C186.844 349.057 186.68 348.414 186.515 347.769L186.999 347.647C186.835 347.003 186.671 346.357 186.508 345.71L186.024 345.83C185.862 345.189 185.702 344.546 185.542 343.901L186.027 343.782C185.869 343.146 185.713 342.509 185.557 341.87L185.072 341.987C184.916 341.347 184.759 340.706 184.605 340.063L185.092 339.947C184.938 339.305 184.784 338.66 184.631 338.014L184.145 338.128C183.993 337.481 183.841 336.833 183.69 336.183L184.176 336.071C184.026 335.425 183.876 334.777 183.727 334.127L183.241 334.238C183.095 333.599 182.949 332.959 182.804 332.317L183.291 332.208C183.147 331.566 183.003 330.924 182.861 330.279L182.373 330.386C182.23 329.741 182.088 329.095 181.946 328.446L182.434 328.341C182.293 327.693 182.153 327.044 182.013 326.393L181.525 326.497C181.385 325.846 181.246 325.193 181.108 324.539L181.597 324.436C181.461 323.794 181.326 323.15 181.192 322.505L180.704 322.607C180.571 321.963 180.437 321.318 180.305 320.671L180.795 320.572C180.663 319.926 180.532 319.279 180.402 318.63L179.912 318.728C179.781 318.078 179.653 317.427 179.524 316.775L180.014 316.68C179.885 316.028 179.757 315.375 179.63 314.72L179.14 314.815C179.014 314.165 178.889 313.513 178.764 312.861L179.254 312.768C179.131 312.124 179.01 311.477 178.888 310.83L178.396 310.923C178.274 310.275 178.156 309.626 178.036 308.975L178.527 308.886C178.407 308.236 178.289 307.585 178.171 306.933L177.679 307.021C177.561 306.368 177.443 305.715 177.326 305.06L177.818 304.973C177.702 304.318 177.586 303.662 177.472 303.005L176.98 303.091C176.867 302.442 176.755 301.792 176.644 301.141L177.135 301.058C177.024 300.41 176.913 299.761 176.804 299.111L176.312 299.193C176.203 298.542 176.093 297.891 175.985 297.238L176.478 297.157C176.37 296.504 176.263 295.851 176.157 295.196L175.664 295.275C175.558 294.62 175.452 293.963 175.347 293.306L175.841 293.228C175.736 292.572 175.633 291.915 175.531 291.257L175.036 291.333C174.935 290.684 174.835 290.034 174.735 289.383L175.23 289.308C175.13 288.658 175.031 288.006 174.933 287.353L174.439 287.427C174.341 286.773 174.244 286.119 174.148 285.463L174.641 285.392C174.545 284.737 174.45 284.081 174.355 283.424L173.86 283.494C173.766 282.837 173.673 282.179 173.58 281.519L174.073 281.45C173.981 280.795 173.89 280.138 173.799 279.48L173.304 279.548C173.214 278.896 173.125 278.244 173.036 277.591L173.532 277.525C173.443 276.872 173.356 276.218 173.27 275.564L172.774 275.628C172.688 274.973 172.602 274.316 172.516 273.659L173.012 273.596C172.927 272.94 172.842 272.282 172.759 271.624L172.262 271.686C172.179 271.027 172.098 270.366 172.016 269.705L172.512 269.644C172.431 268.988 172.35 268.331 172.27 267.674L171.776 267.733C171.697 267.08 171.616 266.426 171.539 265.771L172.037 265.712C171.96 265.058 171.883 264.402 171.808 263.746L171.312 263.802C171.236 263.145 171.161 262.487 171.087 261.829L171.583 261.774C171.509 261.116 171.436 260.457 171.364 259.797L170.867 259.851C170.794 259.191 170.724 258.529 170.654 257.867L171.15 257.815C171.08 257.158 171.01 256.5 170.942 255.841L170.445 255.892C170.377 255.238 170.309 254.582 170.243 253.926L170.741 253.876C170.675 253.22 170.609 252.563 170.544 251.905L170.047 251.953C169.982 251.295 169.918 250.636 169.855 249.976L170.352 249.93C170.289 249.271 170.227 248.611 170.166 247.95L169.667 247.997C169.606 247.335 169.547 246.673 169.487 246.01L169.985 245.965C169.955 245.634 169.926 245.303 169.896 244.971L169.809 243.977L169.312 244.021C169.254 243.358 169.195 242.696 169.139 242.034L169.14 242.034L169.638 241.992C169.582 241.331 169.527 240.671 169.473 240.011L168.976 240.051C168.922 239.39 168.869 238.73 168.817 238.071L169.315 238.032C169.263 237.373 169.212 236.715 169.162 236.058L168.664 236.095L168.663 236.094C168.613 235.437 168.565 234.78 168.516 234.123L169.014 234.087C168.966 233.426 168.919 232.766 168.872 232.107L168.374 232.143C168.327 231.479 168.28 230.815 168.235 230.153L168.734 230.119C168.689 229.456 168.645 228.795 168.602 228.134L168.104 228.166C168.061 227.505 168.02 226.844 167.979 226.184L168.477 226.154C168.436 225.495 168.396 224.836 168.357 224.177L167.857 224.207L167.856 224.206C167.817 223.548 167.781 222.89 167.744 222.234L168.242 222.205C168.204 221.544 168.168 220.883 168.133 220.223L167.634 220.25C167.599 219.585 167.562 218.921 167.528 218.257L167.529 218.258L168.028 218.232C167.994 217.569 167.962 216.907 167.93 216.246L167.432 216.269C167.4 215.607 167.369 214.946 167.339 214.286L167.838 214.264C167.808 213.604 167.779 212.944 167.751 212.286L167.252 212.308C167.224 211.649 167.197 210.991 167.171 210.334L167.671 210.314C167.644 209.651 167.619 208.988 167.594 208.326L167.096 208.345C167.072 207.68 167.048 207.015 167.025 206.351L167.525 206.335C167.502 205.671 167.481 205.009 167.46 204.347L166.962 204.362C166.941 203.7 166.922 203.039 166.904 202.379L167.403 202.365C167.384 201.705 167.367 201.046 167.351 200.388L166.851 200.4L166.805 198.428L167.305 198.417C167.29 197.751 167.276 197.086 167.263 196.422L166.764 196.431C166.751 195.766 166.74 195.101 166.73 194.437L167.229 194.429C167.218 193.766 167.208 193.103 167.2 192.442L166.7 192.449C166.692 191.787 166.685 191.126 166.679 190.466L167.177 190.462C167.171 189.802 167.166 189.144 167.161 188.486L166.662 188.489C166.658 187.829 166.653 187.17 166.651 186.512L167.15 186.51C167.147 185.843 167.146 185.177 167.145 184.512L166.645 184.513C166.645 183.847 166.646 183.183 166.648 182.519L167.147 182.521C167.149 181.858 167.151 181.197 167.155 180.536L166.655 180.533C166.659 179.872 166.662 179.212 166.667 178.553L166.668 178.554L167.169 178.557C167.174 177.899 167.18 177.242 167.188 176.586L166.689 176.58C166.697 175.916 166.706 175.253 166.716 174.591L167.215 174.597C167.225 173.931 167.236 173.266 167.248 172.602L166.749 172.593L166.787 170.603L167.287 170.614C167.301 169.952 167.316 169.292 167.332 168.633L166.833 168.621C166.849 167.961 166.867 167.302 166.886 166.645L167.385 166.659C167.403 166 167.422 165.343 167.443 164.687L166.943 164.672L167.009 162.671L167.509 162.688C167.532 162.023 167.555 161.36 167.58 160.697L167.081 160.678C167.107 160.015 167.133 159.354 167.161 158.694L167.659 158.714C167.687 158.055 167.715 157.397 167.744 156.74L167.245 156.717C167.275 156.06 167.306 155.404 167.338 154.749L167.836 154.773C167.868 154.107 167.901 153.443 167.936 152.781L167.437 152.755C167.472 152.089 167.507 151.424 167.544 150.761L168.042 150.788C168.079 150.125 168.117 149.464 168.156 148.804L167.656 148.775C167.695 148.115 167.736 147.456 167.777 146.799L168.276 146.83C168.317 146.173 168.359 145.518 168.402 144.864L167.904 144.832C167.948 144.169 167.993 143.507 168.039 142.847L168.537 142.882C168.584 142.216 168.631 141.552 168.68 140.889L168.182 140.852C168.231 140.189 168.279 139.527 168.33 138.866L168.331 138.867L168.83 138.905C168.881 138.246 168.934 137.589 168.987 136.933L168.489 136.893C168.542 136.236 168.597 135.581 168.653 134.927L169.151 134.97C169.207 134.31 169.264 133.652 169.323 132.996L168.826 132.951C168.874 132.405 168.923 131.861 168.973 131.317L169.007 130.957L169.504 131.004C169.566 130.342 169.629 129.681 169.693 129.023L169.196 128.974L169.195 128.973C169.199 128.93 169.204 128.887 169.208 128.844L169.392 127.003L169.888 127.054C169.955 126.399 170.023 125.746 170.091 125.096L169.596 125.043C169.665 124.383 169.736 123.725 169.808 123.07L170.304 123.125C170.377 122.46 170.451 121.797 170.527 121.137L170.031 121.08C170.106 120.418 170.182 119.759 170.26 119.101L170.757 119.16C170.835 118.504 170.914 117.849 170.995 117.197L170.499 117.136C170.579 116.483 170.662 115.832 170.745 115.183L171.239 115.246C171.323 114.587 171.408 113.929 171.495 113.274L171.001 113.209C171.089 112.546 171.178 111.884 171.268 111.225L171.763 111.293C171.853 110.634 171.944 109.978 172.037 109.324L171.543 109.254C171.636 108.6 171.729 107.948 171.824 107.298L172.319 107.371C172.414 106.722 172.511 106.076 172.609 105.432L172.115 105.356C172.216 104.693 172.318 104.033 172.421 103.375L172.914 103.453C173.017 102.793 173.122 102.135 173.228 101.481L172.736 101.401C172.842 100.745 172.95 100.093 173.059 99.4427L173.551 99.5255C173.66 98.8763 173.77 98.2295 173.881 97.5855L173.39 97.4996C173.503 96.8483 173.616 96.1996 173.732 95.5537L174.223 95.6415C174.341 94.9811 174.46 94.3234 174.58 93.6687L174.09 93.5778C174.211 92.9224 174.332 92.2696 174.456 91.6199L174.947 91.7136C175.071 91.0648 175.196 90.4185 175.322 89.7756L174.831 89.6789L174.83 89.678C174.956 89.0342 175.085 88.3936 175.214 87.7557L175.704 87.8555C175.837 87.1976 175.972 86.5427 176.108 85.8912L175.619 85.7895C175.755 85.1344 175.894 84.4827 176.034 83.8341L176.521 83.9389C176.661 83.2915 176.802 82.6472 176.944 82.0064L176.456 81.8986C176.599 81.2564 176.743 80.6175 176.888 79.9819L177.375 80.0937C177.523 79.4439 177.674 78.7976 177.825 78.1548L177.34 78.04C177.494 77.3868 177.65 76.7375 177.807 76.0917L178.292 76.2095C178.449 75.565 178.607 74.9241 178.767 74.287L178.284 74.1652C178.444 73.5265 178.605 72.8916 178.769 72.2604L179.252 72.3863C179.418 71.7424 179.586 71.1021 179.756 70.4661L179.275 70.3372C179.448 69.6878 179.623 69.0425 179.799 68.4015L180.28 68.5344C180.456 67.8945 180.634 67.2579 180.814 66.6263L180.334 66.4904C180.514 65.8573 180.696 65.2285 180.879 64.6039L181.357 64.7449C181.544 64.105 181.734 63.4695 181.925 62.8386L181.448 62.6937C181.642 62.0504 181.839 61.4117 182.037 60.7778L182.513 60.9268C182.71 60.2943 182.91 59.6663 183.111 59.0433L182.636 58.8904C182.838 58.2657 183.041 57.6456 183.246 57.0305L183.72 57.1885C183.932 56.5506 184.147 55.9177 184.363 55.2903L183.891 55.1272C184.109 54.4935 184.33 53.8652 184.552 53.2422L185.023 53.4103C185.245 52.7888 185.468 52.1723 185.694 51.5616L185.225 51.3884C185.454 50.7685 185.685 50.1544 185.918 49.5457L186.384 49.724C186.624 49.0939 186.867 48.4695 187.112 47.8517L186.649 47.6682C186.894 47.0485 187.142 46.4353 187.391 45.8279L187.852 46.0174C188.101 45.412 188.351 44.8124 188.604 44.2195L188.145 44.0229C188.406 43.4104 188.668 42.8042 188.933 42.205L188.945 42.1795L189.402 42.3812C189.672 41.77 189.945 41.1655 190.22 40.5685L189.767 40.3596C190.043 39.7604 190.321 39.1687 190.602 38.5837L191.051 38.7988C191.339 38.1968 191.63 37.6022 191.922 37.0157L191.476 36.7925C191.777 36.1897 192.079 35.5946 192.385 35.0081L192.828 35.2394C193.132 34.6554 193.438 34.0793 193.747 33.5119L193.31 33.2742C193.629 32.6865 193.951 32.1076 194.276 31.5375L194.71 31.7834C195.042 31.2002 195.377 30.6264 195.714 30.0621L195.286 29.806C195.625 29.2383 195.968 28.6811 196.313 28.1326L196.734 28.3982C197.09 27.8318 197.448 27.2758 197.809 26.7304L197.392 26.4547C197.763 25.893 198.139 25.3436 198.517 24.804L198.925 25.0894C199.299 24.5539 199.677 24.0297 200.057 23.5166L199.656 23.2197C200.061 22.673 200.47 22.1396 200.881 21.6181L201.272 21.9256C201.682 21.4049 202.096 20.8967 202.512 20.402L202.129 20.0801C202.558 19.5703 202.992 19.076 203.427 18.5934L203.797 18.9264C204.246 18.4286 204.698 17.9455 205.154 17.4777L204.798 17.1299C205.258 16.6577 205.72 16.1998 206.187 15.7578L206.531 16.1195C207.019 15.6568 207.512 15.2111 208.007 14.7827L207.682 14.4067C208.066 14.0743 208.451 13.7503 208.84 13.4384L209.202 13.1514L209.51 13.5447C210.033 13.135 210.56 12.744 211.09 12.3724L210.803 11.9635C211.35 11.5798 211.901 11.2157 212.457 10.8718L212.72 11.2975C213.28 10.9509 213.844 10.6247 214.412 10.3202L214.175 9.87944C214.764 9.56347 215.357 9.27046 215.955 8.99919L216.162 9.4534C216.757 9.18303 217.357 8.93603 217.961 8.71166L217.786 8.24284C218.41 8.01073 219.038 7.80233 219.672 7.61888L219.673 7.61977L219.811 8.09964C220.435 7.91881 221.064 7.76261 221.696 7.63067L221.594 7.14072C222.242 7.00552 222.894 6.89476 223.551 6.81046L223.552 6.81134L223.616 7.30767C223.938 7.26634 224.261 7.23083 224.586 7.20211C224.91 7.1734 225.234 7.15148 225.558 7.13555L225.533 6.63577L225.533 6.6348C226.195 6.60228 226.857 6.59658 227.519 6.61574L227.505 7.11595C228.151 7.13466 228.797 7.17791 229.443 7.2462L229.494 6.74952C230.15 6.81876 230.805 6.91249 231.461 7.03119L231.373 7.52328C232.006 7.63806 232.641 7.77668 233.274 7.93814L233.396 7.45382C234.032 7.61579 234.668 7.79992 235.303 8.00741L235.149 8.48281C235.761 8.68279 236.373 8.90484 236.985 9.14755L237.169 8.68229C237.776 8.92308 238.383 9.18457 238.989 9.46609L238.779 9.919C239.367 10.1917 239.954 10.4848 240.541 10.7962L240.775 10.354C241.348 10.6582 241.92 10.9825 242.492 11.3224L242.238 11.7497C242.801 12.0842 243.364 12.4366 243.926 12.8061L244.2 12.3897C244.737 12.7428 245.274 13.1119 245.81 13.496L245.52 13.9011C246.051 14.2816 246.582 14.6774 247.112 15.0885L247.415 14.696C247.929 15.0944 248.443 15.5047 248.955 15.9311L248.636 16.3152C249.133 16.729 249.629 17.1567 250.124 17.5971L250.454 17.2257C250.95 17.6669 251.447 18.12 251.941 18.5871L251.6 18.9497C252.064 19.388 252.528 19.8376 252.991 20.299L253.341 19.9464C253.808 20.4112 254.274 20.8859 254.739 21.3735L254.379 21.7182C254.83 22.1916 255.28 22.6761 255.73 23.171L256.097 22.8365C256.532 23.3156 256.968 23.8035 257.402 24.3023L257.026 24.6297C257.457 25.1259 257.888 25.6318 258.318 26.1475L258.7 25.8294C259.12 26.3334 259.538 26.8467 259.957 27.369L259.569 27.6808C259.972 28.185 260.375 28.6976 260.777 29.2188L261.173 28.9132C261.577 29.4371 261.979 29.9703 262.381 30.511L261.982 30.8082C262.373 31.3342 262.764 31.8683 263.153 32.4103L263.557 32.1196C263.936 32.6463 264.313 33.1806 264.69 33.7221L264.282 34.0073C264.657 34.5465 265.032 35.093 265.406 35.6469L265.819 35.3681C266.191 35.9191 266.561 36.478 266.93 37.0432L266.514 37.3163C266.867 37.8557 267.22 38.4017 267.571 38.9541L267.99 38.6866C268.342 39.2409 268.694 39.8015 269.045 40.3686L268.622 40.6306C268.971 41.1957 269.32 41.767 269.668 42.3448L270.094 42.0874C270.43 42.6457 270.766 43.2096 271.1 43.7796L270.67 44.0324C271 44.5939 271.328 45.1615 271.655 45.7343L272.089 45.4861L272.089 45.4851C272.418 46.0596 272.745 46.6398 273.072 47.2255L273.072 47.2265L272.636 47.47C272.959 48.0494 273.281 48.6342 273.603 49.2245L274.041 48.9857C274.351 49.5552 274.659 50.13 274.968 50.7094L274.529 50.9434C274.836 51.5213 275.143 52.1045 275.448 52.6923L275.89 52.4621C276.196 53.0513 276.502 53.6455 276.806 54.2446L276.364 54.471C276.663 55.0585 276.96 55.6508 277.257 56.2477L277.702 56.025C277.993 56.6077 278.282 57.1948 278.57 57.7863L278.123 58.0053C278.411 58.5954 278.698 59.19 278.984 59.7889L279.433 59.5736C279.719 60.1738 280.005 60.778 280.29 61.3868L279.839 61.5983C280.118 62.1946 280.396 62.7954 280.674 63.3999L281.126 63.1912C281.397 63.7838 281.668 64.3805 281.938 64.981L281.485 65.1859C281.754 65.785 282.023 66.3879 282.291 66.9948L282.746 66.7937C283.014 67.4019 283.282 68.0136 283.549 68.6295L283.092 68.8278C283.354 69.4339 283.616 70.0437 283.876 70.6573L284.335 70.4618C284.589 71.0619 284.844 71.6655 285.097 72.2727L284.637 72.4644C284.89 73.0702 285.142 73.6797 285.393 74.2925L285.854 74.1036C286.106 74.7175 286.357 75.3347 286.607 75.9556L286.144 76.1417C286.392 76.7591 286.639 77.3801 286.886 78.0043L287.35 77.8201C287.589 78.4252 287.828 79.0334 288.066 79.6449L288.066 79.6458L287.601 79.8273C287.838 80.438 288.074 81.0524 288.31 81.6693L288.775 81.4908C289.011 82.1087 289.246 82.7297 289.481 83.3538L289.014 83.5295C289.248 84.1527 289.481 84.7793 289.713 85.4087L290.18 85.236C290.407 85.8515 290.633 86.4702 290.858 87.0916L290.391 87.2624C290.614 87.8767 290.837 88.494 291.058 89.1141L291.526 88.9461C291.748 89.5668 291.968 90.1905 292.188 90.8168L291.718 90.982C291.938 91.6076 292.157 92.2367 292.375 92.8679L292.845 92.7047C293.063 93.3341 293.279 93.9662 293.495 94.601L293.024 94.7614C293.233 95.3783 293.441 95.9986 293.649 96.6207L294.123 96.4621C294.331 97.085 294.538 97.7104 294.745 98.3383L294.271 98.494C294.477 99.1212 294.682 99.7514 294.887 100.384L295.361 100.23C295.566 100.863 295.769 101.498 295.972 102.136L295.498 102.287C295.699 102.917 295.898 103.549 296.097 104.183L296.573 104.034C296.769 104.658 296.964 105.285 297.158 105.914L296.681 106.061C296.875 106.689 297.068 107.319 297.26 107.952L297.737 107.806C297.93 108.44 298.121 109.076 298.311 109.713L297.834 109.857C298.024 110.494 298.214 111.133 298.403 111.775L298.88 111.634C299.067 112.266 299.252 112.901 299.436 113.538L298.959 113.678C299.141 114.306 299.322 114.936 299.503 115.569L299.982 115.432C300.162 116.065 300.343 116.701 300.522 117.338L300.042 117.474C300.221 118.11 300.398 118.749 300.576 119.39L301.056 119.257C301.233 119.899 301.409 120.543 301.585 121.188L301.105 121.32C301.278 121.955 301.451 122.593 301.622 123.233L302.103 123.103C302.272 123.736 302.442 124.372 302.61 125.009L302.128 125.136C302.296 125.772 302.463 126.41 302.629 127.05L303.113 126.925L303.113 126.924C303.279 127.565 303.443 128.208 303.608 128.853L303.125 128.977C303.29 129.621 303.453 130.266 303.616 130.914L304.1 130.792C304.261 131.433 304.421 132.076 304.581 132.722L304.098 132.841C304.255 133.477 304.412 134.115 304.568 134.754L305.053 134.636C305.209 135.275 305.364 135.917 305.518 136.56L305.034 136.677C305.188 137.319 305.341 137.963 305.493 138.609L305.979 138.495C306.132 139.141 306.284 139.79 306.435 140.44L305.949 140.552C306.099 141.199 306.249 141.847 306.397 142.497L306.884 142.385C307.03 143.024 307.176 143.664 307.32 144.306L307.321 144.306L306.833 144.416C306.978 145.057 307.121 145.7 307.264 146.345L307.75 146.237C307.893 146.882 308.036 147.528 308.177 148.176L307.69 148.283C307.832 148.931 307.972 149.58 308.111 150.23L308.599 150.125C308.738 150.777 308.877 151.429 309.015 152.083L309.016 152.083L308.528 152.187C308.663 152.829 308.798 153.473 308.932 154.118L309.419 154.016C309.553 154.66 309.686 155.305 309.818 155.952L309.33 156.052C309.462 156.698 309.593 157.345 309.723 157.993L310.212 157.895C310.342 158.544 310.472 159.195 310.6 159.847L310.111 159.944C310.24 160.596 310.367 161.248 310.494 161.902L310.983 161.808C311.109 162.458 311.235 163.109 311.359 163.762L310.87 163.855C310.993 164.5 311.115 165.146 311.236 165.793L311.728 165.701L311.728 165.7C311.849 166.348 311.969 166.997 312.089 167.647L311.598 167.738C311.717 168.388 311.837 169.038 311.955 169.691L312.445 169.601C312.563 170.254 312.681 170.908 312.797 171.563L312.306 171.651C312.422 172.305 312.538 172.961 312.653 173.618L313.143 173.532C313.257 174.181 313.369 174.83 313.481 175.481L312.99 175.566C313.101 176.213 313.211 176.863 313.321 177.513L313.812 177.43C313.922 178.081 314.03 178.732 314.138 179.385L313.647 179.467C313.754 180.12 313.861 180.773 313.967 181.428L314.459 181.348C314.566 182.003 314.671 182.66 314.776 183.317L314.284 183.396C314.388 184.052 314.491 184.709 314.594 185.367L315.087 185.289C315.188 185.938 315.289 186.588 315.388 187.239L314.896 187.315C314.995 187.966 315.094 188.618 315.192 189.27L315.684 189.196C315.782 189.849 315.879 190.504 315.976 191.159L315.483 191.232C315.579 191.887 315.675 192.543 315.769 193.2L316.263 193.128Z" stroke="black" stroke-dasharray="2 2"/>
<g filter="url(#filter0_d_242_293)">
<circle cx="177.826" cy="300.714" r="5.59758" fill="black"/>
</g>
<g filter="url(#filter1_d_242_293)">
<circle cx="313.002" cy="178.484" r="4.37528" fill="black"/>
</g>
<defs>
<filter id="filter0_d_242_293" x="168.229" y="291.116" width="19.1953" height="19.1951" filterUnits="userSpaceOnUse" color-interpolation-filters="sRGB">
<feFlood flood-opacity="0" result="BackgroundImageFix"/>
<feColorMatrix in="SourceAlpha" type="matrix" values="0 0 0 0 0 0 0 0 0 0 0 0 0 0 0 0 0 0 127 0" result="hardAlpha"/>
<feOffset/>
<feGaussianBlur stdDeviation="2"/>
<feComposite in2="hardAlpha" operator="out"/>
<feColorMatrix type="matrix" values="0 0 0 0 0 0 0 0 0 0 0 0 0 0 0 0 0 0 0.25 0"/>
<feBlend mode="normal" in2="BackgroundImageFix" result="effect1_dropShadow_242_293"/>
<feBlend mode="normal" in="SourceGraphic" in2="effect1_dropShadow_242_293" result="shape"/>
</filter>
<filter id="filter1_d_242_293" x="304.627" y="170.108" width="16.751" height="16.7505" filterUnits="userSpaceOnUse" color-interpolation-filters="sRGB">
<feFlood flood-opacity="0" result="BackgroundImageFix"/>
<feColorMatrix in="SourceAlpha" type="matrix" values="0 0 0 0 0 0 0 0 0 0 0 0 0 0 0 0 0 0 127 0" result="hardAlpha"/>
<feOffset/>
<feGaussianBlur stdDeviation="2"/>
<feComposite in2="hardAlpha" operator="out"/>
<feColorMatrix type="matrix" values="0 0 0 0 0 0 0 0 0 0 0 0 0 0 0 0 0 0 0.25 0"/>
<feBlend mode="normal" in2="BackgroundImageFix" result="effect1_dropShadow_242_293"/>
<feBlend mode="normal" in="SourceGraphic" in2="effect1_dropShadow_242_293" result="shape"/>
</filter>
</defs>
</svg>
